<svg width="25" height="25" viewBox="0 0 25 25" fill="none" xmlns="http://www.w3.org/2000/svg">
<path d="M22.124 3.85798C21.5434 3.27734 20.854 2.81681 20.0953 2.50271C19.3366 2.18861 18.5234 2.0271 17.7023 2.02741C16.8811 2.02771 16.0681 2.18983 15.3096 2.5045C14.5511 2.81917 13.8621 3.28022 13.2819 3.8613L12.5245 4.6279L11.7734 3.86296L11.7686 3.85808C11.1882 3.27771 10.4992 2.81733 9.74091 2.50324C8.98262 2.18914 8.16989 2.02748 7.34913 2.02748C6.52836 2.02748 5.71563 2.18914 4.95735 2.50324C4.19906 2.81733 3.51006 3.27771 2.9297 3.85808L2.59229 4.19548C1.4202 5.36758 0.761719 6.95729 0.761719 8.61489C0.761719 10.2725 1.4202 11.8622 2.59229 13.0343L11.4972 21.9391L12.5028 22.9927L12.5268 22.9687L12.5528 22.9947L13.495 22.0007L22.4614 13.0342C23.6318 11.8611 24.289 10.2718 24.289 8.61474C24.289 6.95773 23.6318 5.36837 22.4614 4.19533L22.124 3.85798ZM21.3564 11.9293L12.5268 20.7591L3.69708 11.9293C2.81801 11.0502 2.32415 9.85796 2.32415 8.61477C2.32415 7.37157 2.81801 6.17929 3.69708 5.30022L4.03453 4.96281C4.91317 4.08418 6.10473 3.59036 7.34732 3.58989C8.58991 3.58942 9.78184 4.08235 10.6611 4.96032L12.5211 6.85422L14.39 4.96281C14.8253 4.52754 15.342 4.18225 15.9107 3.94668C16.4795 3.71111 17.089 3.58987 17.7046 3.58987C18.3201 3.58987 18.9297 3.71111 19.4984 3.94668C20.0671 4.18225 20.5839 4.52754 21.0191 4.96281L21.3566 5.30017C22.2343 6.17997 22.7272 7.37201 22.7272 8.61478C22.7271 9.85756 22.2342 11.0496 21.3564 11.9293Z" fill="#FFE11E"/>
</svg>
